<svg width="247" height="16" viewBox="0 0 247 16" fill="none" xmlns="http://www.w3.org/2000/svg">
<path d="M8.0595 0.319702H15.7049V2.50131H8.0595C6.54614 2.50131 5.26862 3.03197 4.2073 4.09329C3.14598 5.15461 2.91013 5.82285 2.69394 6.86451H13.5233V9.04612H2.69394C2.89048 10.0878 3.40148 11.0115 4.2073 11.8173C5.26862 12.8983 6.56579 13.429 8.0595 13.429H15.7049V15.6106H8.0595C5.93686 15.6106 4.14834 14.8637 2.65463 13.37C1.16092 11.8763 0.414062 10.0681 0.414062 7.96514C0.414062 5.86215 1.16092 4.05398 2.65463 2.56027C4.14834 1.06656 5.95651 0.319702 8.0595 0.319702Z" fill="#E8E8E8"/>
<path d="M25.3163 0.319702H32.9618V2.50131H25.3163C23.803 2.50131 22.5255 3.03197 21.4445 4.09329C20.3832 5.15461 19.8525 6.45178 19.8525 7.96514C19.8525 9.47851 20.3832 10.756 21.4445 11.837C22.5058 12.8983 23.803 13.429 25.3163 13.429H32.9618V15.6106H25.3163C23.1937 15.6106 21.4052 14.8637 19.9115 13.37C18.4178 11.8763 17.6709 10.0681 17.6709 7.96514C17.6709 5.86215 18.4178 4.05398 19.9115 2.56027C21.4052 1.06656 23.2133 0.319702 25.3163 0.319702Z" fill="#E8E8E8"/>
<path d="M47.9966 2.56027C49.4903 4.05398 50.2372 5.86215 50.2372 7.96514C50.2372 10.0681 49.4903 11.8763 47.9966 13.37C46.5029 14.8637 44.6947 15.6106 42.5917 15.6106C40.4887 15.6106 38.6806 14.8637 37.1869 13.37C35.6931 11.8763 34.9463 10.0681 34.9463 7.96514C34.9463 5.86215 35.6931 4.05398 37.1869 2.56027C38.6806 1.06656 40.4887 0.319702 42.5917 0.319702C44.6947 0.319702 46.5029 1.06656 47.9966 2.56027ZM42.5917 2.50131C41.0784 2.50131 39.8009 3.03197 38.7199 4.09329C37.6586 5.15461 37.1279 6.45178 37.1279 7.96514C37.1279 9.47851 37.6586 10.756 38.7199 11.837C39.7812 12.8983 41.0784 13.429 42.5917 13.429C44.1051 13.429 45.3826 12.8983 46.4636 11.837C47.5249 10.7757 48.0556 9.47851 48.0556 7.96514C48.0556 6.45178 47.5249 5.17426 46.4636 4.09329C45.4023 3.03197 44.1051 2.50131 42.5917 2.50131Z" fill="#E8E8E8"/>
<path d="M56.5663 0.319702H67.494V2.50131H56.5663C55.9571 2.50131 55.4461 2.7175 55.0137 3.14989C54.5813 3.58228 54.3651 4.09329 54.3651 4.70256C54.3651 5.31184 54.5813 5.82285 55.0137 6.25524C55.4461 6.68763 55.9571 6.90382 56.5663 6.90382H63.1308C64.3494 6.90382 65.3714 7.33621 66.2165 8.18134C67.0616 9.02646 67.494 10.0681 67.494 11.267C67.494 12.4659 67.0616 13.5076 66.2165 14.3527C65.3714 15.1978 64.3297 15.6302 63.1308 15.6302H52.2031V13.4486H63.1308C63.7401 13.4486 64.2511 13.2324 64.6835 12.8C65.1159 12.3677 65.3321 11.8566 65.3321 11.2474C65.3321 10.6381 65.1159 10.1271 64.6835 9.6947C64.2511 9.26231 63.7401 9.04612 63.1308 9.04612H56.5663C55.3478 9.04612 54.3258 8.61373 53.4806 7.7686C52.6355 6.92347 52.2031 5.88181 52.2031 4.68291C52.2031 3.48401 52.6355 2.44234 53.4806 1.59722C54.3258 0.752092 55.3674 0.319702 56.5663 0.319702Z" fill="#E8E8E8"/>
<path d="M69.459 0.319702H80.3867C81.6052 0.319702 82.6272 0.752092 83.4723 1.59722C84.3175 2.44234 84.7499 3.48401 84.7499 4.68291C84.7499 5.88181 84.3175 6.92347 83.4723 7.7686C82.6272 8.61373 81.5856 9.04612 80.3867 9.04612H71.6406V15.6106H69.459V0.319702ZM71.6602 2.50131V6.86451H80.4063C81.0156 6.86451 81.5266 6.64832 81.959 6.21593C82.3914 5.78354 82.6076 5.27253 82.6076 4.66326C82.6076 4.05398 82.3914 3.54297 81.959 3.11058C81.5266 2.67819 81.0156 2.462 80.4063 2.462H71.6602V2.50131Z" fill="#E8E8E8"/>
<path d="M88.917 9.06589V15.6304H86.7354V0.339478H88.917V6.90394H99.8446V0.339478H102.026V15.6304H99.8446V9.06589H88.917Z" fill="#E8E8E8"/>
<path d="M111.656 0.319702H119.302V2.50131H111.656C110.143 2.50131 108.865 3.03197 107.804 4.09329C106.998 4.8991 106.507 5.82285 106.291 6.86451H117.12V9.04612H106.291C106.487 10.0878 106.998 11.0115 107.804 11.8173C108.865 12.8983 110.162 13.429 111.656 13.429H119.302V15.6106H111.656C109.534 15.6106 107.745 14.8637 106.251 13.37C104.758 11.8763 104.011 10.0681 104.011 7.96514C104.011 5.86215 104.758 4.05398 106.251 2.56027C107.745 1.06656 109.553 0.319702 111.656 0.319702Z" fill="#E8E8E8"/>
<path d="M121.267 0.319827H132.194C133.413 0.319827 134.435 0.752217 135.28 1.59734C136.125 2.44247 136.558 3.48413 136.558 4.68303C136.558 5.88193 136.125 6.9236 135.28 7.76873C134.435 8.61385 135.143 7.88665 135.084 7.94561C135.143 8.00458 135.221 8.06354 135.28 8.1225C136.125 8.96763 136.558 10.0093 136.558 11.2082V15.5714H134.376V11.2082C134.376 10.5989 134.16 10.0879 133.727 9.65552C133.295 9.22313 132.784 9.00693 132.175 9.00693H123.429V15.5714H121.247V0.280518L121.267 0.319827ZM123.448 2.50143V6.86464H132.194C132.804 6.86464 133.315 6.64844 133.747 6.21605C134.179 5.78366 134.396 5.27266 134.396 4.66338C134.396 4.0541 134.179 3.5431 133.747 3.11071C133.315 2.67832 132.804 2.46212 132.194 2.46212H123.448V2.50143Z" fill="#E8E8E8"/>
<path d="M146.188 0.319702H153.834V2.50131H146.188C144.675 2.50131 143.398 3.03197 142.336 4.09329C141.53 4.8991 141.039 5.82285 140.823 6.86451H151.652V9.04612H140.823C141.019 10.0878 141.53 11.0115 142.336 11.8173C143.398 12.8983 144.695 13.429 146.188 13.429H153.834V15.6106H146.188C144.066 15.6106 142.277 14.8637 140.784 13.37C139.29 11.8763 138.543 10.0681 138.543 7.96514C138.543 5.86215 139.29 4.05398 140.784 2.56027C142.277 1.06656 144.085 0.319702 146.188 0.319702Z" fill="#E8E8E8"/>
<path d="M162.227 0.319702H173.154C174.373 0.319702 175.395 0.752092 176.24 1.59722C177.085 2.44234 177.517 3.48401 177.517 4.68291C177.517 5.88181 177.085 6.92347 176.24 7.7686C175.395 8.61373 174.353 9.04612 173.154 9.04612H164.408V15.6106H162.227V0.319702ZM164.408 2.50131V6.86451H173.154C173.764 6.86451 174.275 6.64832 174.707 6.21593C175.139 5.78354 175.355 5.27253 175.355 4.66326C175.355 4.05398 175.139 3.54297 174.707 3.11058C174.275 2.67819 173.764 2.462 173.154 2.462H164.408V2.50131Z" fill="#E8E8E8"/>
<path d="M179.483 0.319827H190.41C191.629 0.319827 192.651 0.752217 193.496 1.59734C194.341 2.44247 194.773 3.48413 194.773 4.68303C194.773 5.88193 194.341 6.9236 193.496 7.76873C192.651 8.61385 193.358 7.88665 193.299 7.94561C193.358 8.00458 193.437 8.06354 193.496 8.1225C194.341 8.96763 194.773 10.0093 194.773 11.2082V15.5714H192.592V11.2082C192.592 10.5989 192.376 10.0879 191.943 9.65552C191.511 9.22313 191 9.00693 190.391 9.00693H181.644V15.5714H179.463V0.280518L179.483 0.319827ZM181.684 2.50143V6.86464H190.43C191.039 6.86464 191.55 6.64844 191.983 6.21605C192.415 5.78366 192.631 5.27266 192.631 4.66338C192.631 4.0541 192.415 3.5431 191.983 3.11071C191.55 2.67832 191.039 2.46212 190.43 2.46212H181.684V2.50143Z" fill="#E8E8E8"/>
<path d="M198.94 15.6106H196.759V0.319702H198.94V15.6106Z" fill="#E8E8E8"/>
<path d="M214.015 7.96514C214.015 6.45178 213.484 5.17426 212.423 4.09329C211.361 3.03197 210.064 2.50131 208.551 2.50131C207.037 2.50131 205.76 3.03197 204.679 4.09329C203.618 5.15461 203.087 6.45178 203.087 7.96514V15.6106H200.905V7.96514C200.905 5.8425 201.652 4.05398 203.146 2.56027C204.64 1.06656 206.448 0.319702 208.551 0.319702C210.654 0.319702 212.462 1.06656 213.956 2.56027C214.408 3.01231 214.781 3.48401 215.096 3.99502C215.41 3.48401 215.783 3.01231 216.235 2.56027C217.729 1.06656 219.537 0.319702 221.64 0.319702C223.743 0.319702 225.552 1.06656 227.045 2.56027C228.539 4.05398 229.286 5.86215 229.286 7.96514V15.6106H227.104V7.96514C227.104 6.45178 226.574 5.17426 225.512 4.09329C224.451 3.03197 223.154 2.50131 221.64 2.50131C220.127 2.50131 218.849 3.03197 217.768 4.09329C216.688 5.15461 216.177 6.45178 216.177 7.96514V15.6106H213.995V7.96514H214.015Z" fill="#E8E8E8"/>
<path d="M238.936 0.319702H246.582V2.50131H238.936C237.423 2.50131 236.146 3.03197 235.084 4.09329C234.278 4.8991 233.787 5.82285 233.571 6.86451H244.4V9.04612H233.571C233.767 10.0878 234.278 11.0115 235.084 11.8173C236.146 12.8983 237.443 13.429 238.936 13.429H246.582V15.6106H238.936C236.814 15.6106 235.025 14.8637 233.532 13.37C232.038 11.8763 231.291 10.0681 231.291 7.96514C231.291 5.86215 232.038 4.05398 233.532 2.56027C235.025 1.06656 236.833 0.319702 238.936 0.319702Z" fill="#E8E8E8"/>
</svg>
