<svg width="171" height="171" viewBox="0 0 171 171" fill="none" xmlns="http://www.w3.org/2000/svg">
<path d="M102.8 168.6C97.1 169.8 91.2 170.4 85.2 170.4C38.1 170.4 0 132.2 0 85.2C0 38.2 13 33.3 33.2 17.7C7 58.9 13.8 99.3 33.6 125.3C46.6 142.4 65.2 153.2 83.7 154C109.5 155.1 127.7 138.4 126.9 111.3C126.1 84.2 111 61 76.4 44.2C126.1 76.6 124.6 129.8 102.3 137.8C81.6 145.2 64.3 130.8 57.8 106C54.2 92.3 54.3 76.4 50.2 57.9C47.5 45.5 42.7 32.1 33 17.7C61.2 14.1 94.9 21.5 117.9 41.5C127.1 49.6 134.6 59.7 139.3 71.9C157.6 120.2 134.9 160.8 102.6 168.6H102.8Z" fill="url(#paint0_linear_483_7926)"/>
<path d="M149.1 141.6C153 131.9 155 120.5 155 107.7C155 77.8 139.9 52.2 118.1 41.5C95.2 21.5 61.4 14.1 33.2 17.7C47.6 6.6 65.6 0 85.2 0C132.3 0 170.4 38.1 170.4 85.2C170.4 132.3 162.4 126.6 149.1 141.6Z" fill="url(#paint1_radial_483_7926)"/>
<path d="M50.4001 57.8C39.1001 70.8 31.9001 88.6 31.9001 108.1C31.9001 127.6 32.5001 119.8 33.7001 125.3C13.9001 99.3 7.00012 58.7999 33.3001 17.7C43.0001 32.1 47.8001 45.5 50.5001 57.8H50.4001Z" fill="url(#paint2_radial_483_7926)"/>
<path d="M43.0999 67.9C34.4999 80.9 27.0999 83 23.3999 77.7C18.2999 70.3 23.1999 39.1 33.1999 17.8C6.99989 59 13.7999 99.4 33.5999 125.4C32.4999 119.9 31.7999 114.1 31.7999 108.2C31.7999 93.3 35.9999 79.5 42.9999 67.9H43.0999Z" fill="url(#paint3_radial_483_7926)"/>
<path d="M83.8001 154C65.3001 153.2 46.7001 142.4 33.7001 125.3C13.9001 99.3 7.0001 58.7999 33.3001 17.7C13.1001 33.3 0.100098 57.7 0.100098 85.2C6.9001 127.8 42.0001 153.2 83.8001 154Z" fill="url(#paint4_linear_483_7926)"/>
<path style="mix-blend-mode:multiply" opacity="0.5" d="M50.4 57.8C47.7 45.5 43 32.1 33.3 17.7C33.3 17.7 45.6 42 46.1 63.4C47.5 61.5 48.9 59.6 50.5 57.8H50.4Z" fill="url(#paint5_linear_483_7926)"/>
<path style="mix-blend-mode:multiply" opacity="0.5" d="M33.3999 17.7C61.5999 14.2 95.2999 21.5 118.2 41.5C123.4 44.1 128.3 47.5 132.6 51.6C101.1 0.699959 36.4999 16.9 33.3999 17.7Z" fill="url(#paint6_linear_483_7926)"/>
<path d="M85.2 2.09998C69.3 2.09998 54 6.49998 40.8 14.9C42.9 14.8 45.1 14.7 47.2 14.7C52.8 14.7 58.4 15.1 63.9 15.9C89.6 13.2 131.9 20 151.7 57.6C167.9 88.4 161.6 115.1 155.4 129.7C163.8 116.5 168.3 101 168.3 85.2C168.3 39.4 131 2.09998 85.2 2.09998Z" fill="url(#paint7_radial_483_7926)"/>
<path d="M33.3999 17.7C33.3999 17.7 33.3999 17.7 33.3999 17.9C42.9999 32.2 47.7999 45.6 50.3999 57.9C54.3999 76.4 54.3999 92.3 57.9999 106C64.3999 130.8 81.7999 145.2 102.5 137.8C75.6999 136.6 65.2999 115.5 63.9999 88.5C62.8999 64.7 58.2999 29.8 45.8999 16.9C41.6999 16.9 37.4999 17.2 33.3999 17.7Z" fill="url(#paint8_radial_483_7926)"/>
<path style="mix-blend-mode:screen" d="M102.4 137.7C81.4999 137.7 69 123.5 64.9 104C63.6 98.1 63 91.9 62.7 85.9C62 73.9 60.8 61.9 58.5 50.1C56.1 38.5 53.4 26.2 45.7 16.8C47.8 19 49.7 21.4 51.1 24.1C55.6 32 58.1 41 60.1 49.8C62.7 61.7 64 73.7 64.8 85.8C65.1 91.8 65.6 97.7001 66.8 103.6C70.6 122.7 82.0999 136.4 102.4 137.7Z" fill="url(#paint9_radial_483_7926)"/>
<path style="mix-blend-mode:screen" d="M0 85.2C5.5 114.8 26.4 138.9 54.9 148.4C64.1 151.6 73.9 153.4 83.7 154C73.8 154.2 63.9 152.9 54.4 149.9C25.2 141.2 3.1 115.6 0 85.2Z" fill="url(#paint10_radial_483_7926)"/>
<defs>
<linearGradient id="paint0_linear_483_7926" x1="47.7" y1="12.9" x2="103.7" y2="195.4" gradientUnits="userSpaceOnUse">
<stop stop-color="#9ACA44"/>
<stop offset="0.2" stop-color="#87BC48"/>
<stop offset="0.5" stop-color="#579A54"/>
<stop offset="1" stop-color="#076169"/>
</linearGradient>
<radialGradient id="paint1_radial_483_7926" cx="0" cy="0" r="1" gradientUnits="userSpaceOnUse" gradientTransform="translate(101.8 70.8) scale(69.7 69.7)">
<stop stop-color="#59C8E8"/>
<stop offset="1" stop-color="#233F83"/>
</radialGradient>
<radialGradient id="paint2_radial_483_7926" cx="0" cy="0" r="1" gradientUnits="userSpaceOnUse" gradientTransform="translate(33.2001 71.5) scale(40 40)">
<stop stop-color="#59C8E8"/>
<stop offset="1" stop-color="#233F83"/>
</radialGradient>
<radialGradient id="paint3_radial_483_7926" cx="0" cy="0" r="1" gradientUnits="userSpaceOnUse" gradientTransform="translate(29.5999 71.5) scale(39.2 39.2)">
<stop stop-color="#55C7E0"/>
<stop offset="1" stop-color="#2359A7"/>
</radialGradient>
<linearGradient id="paint4_linear_483_7926" x1="42.8001" y1="130.8" x2="33.9001" y2="22.4999" gradientUnits="userSpaceOnUse">
<stop stop-color="#9ACA44"/>
<stop offset="0.2" stop-color="#87BC48"/>
<stop offset="0.5" stop-color="#579A54"/>
<stop offset="1" stop-color="#076169"/>
</linearGradient>
<linearGradient id="paint5_linear_483_7926" x1="45" y1="8.89995" x2="36.2" y2="88.5" gradientUnits="userSpaceOnUse">
<stop stop-color="#F5F5F5"/>
<stop offset="0.2" stop-color="#DBDBDB"/>
<stop offset="0.4" stop-color="#B1B1B1"/>
<stop offset="0.6" stop-color="#777777"/>
<stop offset="0.9" stop-color="#2E2E2E"/>
<stop offset="1"/>
</linearGradient>
<linearGradient id="paint6_linear_483_7926" x1="130" y1="70.4" x2="62.1999" y2="14.9" gradientUnits="userSpaceOnUse">
<stop stop-color="white"/>
<stop offset="0.1" stop-color="#F9F5F6"/>
<stop offset="0.3" stop-color="#E9DBDF"/>
<stop offset="0.5" stop-color="#D0B2B9"/>
<stop offset="0.7" stop-color="#AC7784"/>
<stop offset="1" stop-color="#833346"/>
</linearGradient>
<radialGradient id="paint7_radial_483_7926" cx="0" cy="0" r="1" gradientUnits="userSpaceOnUse" gradientTransform="translate(104.6 65.9) scale(63.8)">
<stop stop-color="#55C7E0"/>
<stop offset="1" stop-color="#2359A7"/>
</radialGradient>
<radialGradient id="paint8_radial_483_7926" cx="0" cy="0" r="1" gradientUnits="userSpaceOnUse" gradientTransform="translate(64.5999 84.2) scale(62.1 62.1)">
<stop stop-color="#9ACA44"/>
<stop offset="0.3" stop-color="#6BA84F"/>
<stop offset="0.8" stop-color="#237561"/>
<stop offset="1" stop-color="#076169"/>
</radialGradient>
<radialGradient id="paint9_radial_483_7926" cx="0" cy="0" r="1" gradientUnits="userSpaceOnUse" gradientTransform="translate(63.7 87.5) scale(59 59)">
<stop stop-color="#AED374"/>
<stop offset="1"/>
</radialGradient>
<radialGradient id="paint10_radial_483_7926" cx="0" cy="0" r="1" gradientUnits="userSpaceOnUse" gradientTransform="translate(23.8 130.6) scale(26.9 26.9)">
<stop stop-color="#A7D065"/>
<stop offset="1"/>
</radialGradient>
</defs>
</svg>
