<svg width="18" height="16" viewBox="0 0 18 16" fill="none" xmlns="http://www.w3.org/2000/svg">
<path d="M15.5767 4.76551C15.1534 5.18718 14.6674 5.50735 14.1187 5.72601C13.5702 5.94451 13.0171 6.05376 12.4592 6.05376C11.9016 6.05376 11.3538 5.94768 10.816 5.73551C10.2783 5.52335 9.79722 5.20001 9.37272 4.76551L7.49772 2.89051C7.22405 2.61485 6.9138 2.4081 6.56697 2.27026C6.22014 2.13243 5.86422 2.06351 5.49922 2.06351C5.13422 2.06351 4.77839 2.13243 4.43172 2.27026C4.08522 2.4081 3.77522 2.61485 3.50172 2.89051L1.79972 4.58276L0.730469 3.51351L2.42272 1.81151C2.84872 1.38718 3.3298 1.06893 3.86597 0.856764C4.4023 0.644598 4.94647 0.538513 5.49847 0.538513C6.05064 0.538513 6.59097 0.644598 7.11947 0.856764C7.64814 1.06893 8.12555 1.38718 8.55172 1.81151L10.4267 3.68651C10.7181 3.97968 11.0367 4.19501 11.3827 4.33251C11.7287 4.46985 12.0876 4.53851 12.4592 4.53851C12.8311 4.53851 13.1907 4.4696 13.5382 4.33176C13.8857 4.19393 14.2056 3.97885 14.4977 3.68651L16.1997 1.99426L17.269 3.06351L15.5767 4.76551ZM15.5767 9.47701C15.1519 9.90135 14.6681 10.2196 14.1255 10.4318C13.5826 10.6439 13.0324 10.75 12.4747 10.75C11.9171 10.75 11.3668 10.6439 10.824 10.4318C10.2813 10.2196 9.79755 9.90135 9.37272 9.47701L7.49772 7.60201C7.22405 7.32635 6.9138 7.1196 6.56697 6.98176C6.22014 6.84393 5.86422 6.77501 5.49922 6.77501C5.13422 6.77501 4.77839 6.84393 4.43172 6.98176C4.08522 7.1196 3.77522 7.32635 3.50172 7.60201L1.79972 9.29426L0.730469 8.25001L2.42272 6.52301C2.84872 6.09868 3.3298 5.78043 3.86597 5.56826C4.4023 5.3561 4.94647 5.25001 5.49847 5.25001C6.05064 5.25001 6.59097 5.3561 7.11947 5.56826C7.64814 5.78043 8.12555 6.09868 8.55172 6.52301L10.4267 8.39801C10.7161 8.69118 11.0326 8.90651 11.3765 9.04401C11.7201 9.18135 12.0779 9.25001 12.4497 9.25001C12.8216 9.25001 13.1828 9.1811 13.5335 9.04326C13.8841 8.90543 14.2056 8.69035 14.4977 8.39801L16.1997 6.70576L17.269 7.77501L15.5767 9.47701ZM15.5517 14.1885C15.1272 14.6128 14.6476 14.9311 14.113 15.1433C13.5785 15.3554 13.0324 15.4615 12.4747 15.4615C11.9171 15.4615 11.3667 15.3538 10.8237 15.1385C10.2809 14.923 9.79722 14.6031 9.37272 14.1788L7.47272 12.3135C7.19905 12.0378 6.8888 11.8311 6.54197 11.6933C6.19514 11.5554 5.83922 11.4865 5.47422 11.4865C5.10922 11.4865 4.75339 11.5554 4.40672 11.6933C4.06022 11.8311 3.75022 12.0378 3.47672 12.3135L1.77472 14.0058L0.730469 12.9615L2.42272 11.2345C2.84755 10.8102 3.3273 10.4919 3.86197 10.2798C4.3968 10.0676 4.93955 9.96151 5.49022 9.96151C6.04389 9.96151 6.58572 10.0676 7.11572 10.2798C7.64589 10.4919 8.12455 10.8102 8.55172 11.2345L10.4267 13.1095C10.7189 13.4018 11.0387 13.6169 11.3862 13.7548C11.7337 13.8926 12.0934 13.9615 12.4652 13.9615C12.8369 13.9615 13.1957 13.8928 13.5417 13.7555C13.8877 13.618 14.2064 13.4027 14.4977 13.1095L16.1997 11.4173L17.244 12.4865L15.5517 14.1885Z" fill="white"/>
</svg>
