<svg width="36" height="36" viewBox="0 0 36 36" fill="none" xmlns="http://www.w3.org/2000/svg">
<path d="M30 24C30 26.2091 28.2091 28 26 28H12C9.79086 28 8 26.2091 8 24C8 21.7909 9.79086 20 12 20C12.3506 20 12.6872 20.0448 13.0056 20.1289C13.5707 16.8123 16.4362 14.25 20 14.25C23.5638 14.25 26.4293 16.8123 26.9944 20.1289C27.3128 20.0448 27.6494 20 28 20C29.6569 20 31 21.3431 31 23C31 23.3333 30.9074 23.6444 30.7407 23.9074C30.9074 23.9543 31.0741 24 31.25 24H30Z" fill="currentColor"/>
<path d="M18 10C20.2091 10 22 11.7909 22 14C22 16.2091 20.2091 18 18 18C15.7909 18 14 16.2091 14 14C14 11.7909 15.7909 10 18 10Z" fill="currentColor" opacity="0.7"/>
<path d="M10 16C11.1046 16 12 16.8954 12 18C12 19.1046 11.1046 20 10 20C8.89543 20 8 19.1046 8 18C8 16.8954 8.89543 16 10 16Z" fill="currentColor" opacity="0.5"/>
</svg>
