<svg width="24" height="24" viewBox="0 0 24 24" fill="none" xmlns="http://www.w3.org/2000/svg">
<mask id="mask0_362_21441" style="mask-type:alpha" maskUnits="userSpaceOnUse" x="0" y="0" width="24" height="24">
<rect width="24" height="24" fill="#D9D9D9"/>
</mask>
<g mask="url(#mask0_362_21441)">
<mask id="mask1_362_21441" style="mask-type:alpha" maskUnits="userSpaceOnUse" x="0" y="0" width="25" height="24">
<rect x="0.474365" width="24" height="24" fill="#D9D9D9"/>
</mask>
<g mask="url(#mask1_362_21441)">
<path d="M8.30136 16.173L14.7051 14.2308L16.6474 7.827L10.2436 9.76925L8.30136 16.173ZM12.4721 13.3077C12.1083 13.3077 11.7998 13.1803 11.5466 12.9255C11.2933 12.6708 11.1666 12.3616 11.1666 11.9978C11.1666 11.6339 11.294 11.3254 11.5489 11.0723C11.8035 10.8189 12.1128 10.6923 12.4766 10.6923C12.8404 10.6923 13.1489 10.8197 13.4021 11.0745C13.6554 11.3292 13.7821 11.6384 13.7821 12.0022C13.7821 12.3661 13.6547 12.6746 13.3999 12.9277C13.1452 13.1811 12.8359 13.3077 12.4721 13.3077ZM12.4761 21.5C11.1621 21.5 9.92703 21.2507 8.77086 20.752C7.6147 20.2533 6.60903 19.5766 5.75387 18.7218C4.8987 17.8669 4.22162 16.8617 3.72262 15.706C3.22378 14.5503 2.97437 13.3156 2.97437 12.0017C2.97437 10.6877 3.2237 9.45267 3.72237 8.2965C4.22103 7.14033 4.89778 6.13467 5.75262 5.2795C6.60745 4.42433 7.6127 3.74725 8.76837 3.24825C9.92403 2.74942 11.1588 2.5 12.4726 2.5C13.7866 2.5 15.0217 2.74933 16.1779 3.248C17.334 3.74667 18.3397 4.42342 19.1949 5.27825C20.05 6.13308 20.7271 7.13833 21.2261 8.294C21.7249 9.44967 21.9744 10.6844 21.9744 11.9983C21.9744 13.3123 21.725 14.5473 21.2264 15.7035C20.7277 16.8597 20.0509 17.8653 19.1961 18.7205C18.3413 19.5757 17.336 20.2528 16.1804 20.7518C15.0247 21.2506 13.7899 21.5 12.4761 21.5ZM12.4744 20C14.6974 20 16.5864 19.2224 18.1416 17.6673C19.6968 16.1121 20.4744 14.223 20.4744 12C20.4744 9.777 19.6968 7.88792 18.1416 6.33275C16.5864 4.77758 14.6974 4 12.4744 4C10.2514 4 8.36228 4.77758 6.80712 6.33275C5.25195 7.88792 4.47437 9.777 4.47437 12C4.47437 14.223 5.25195 16.1121 6.80712 17.6673C8.36228 19.2224 10.2514 20 12.4744 20Z" fill="#F9F7FF"/>
</g>
</g>
</svg>
