<svg width="22" height="22" viewBox="0 0 22 22" fill="none" xmlns="http://www.w3.org/2000/svg">
<path d="M10.25 4.21151V0.519257H11.75V4.21151H10.25ZM16.323 6.73076L15.2943 5.70201L17.873 3.03851L18.9365 4.11726L16.323 6.73076ZM17.7885 11.75V10.25H21.4808V11.75H17.7885ZM10.25 21.4808V17.798H11.75V21.4808H10.25ZM5.69629 6.69051L3.03854 4.12701L4.12704 3.07301L6.74054 5.67701L5.69629 6.69051ZM17.8578 18.9615L15.2943 16.298L16.3078 15.2943L18.927 17.8423L17.8578 18.9615ZM0.519287 11.75V10.25H4.21154V11.75H0.519287ZM4.11729 18.9615L3.07304 17.873L5.65204 15.2943L6.19429 15.8058L6.74629 16.3328L4.11729 18.9615ZM11.0023 16.5C9.47512 16.5 8.17629 15.9655 7.10579 14.8965C6.03529 13.8275 5.50004 12.5294 5.50004 11.0023C5.50004 9.47509 6.03454 8.17626 7.10354 7.10576C8.17254 6.03526 9.47062 5.50001 10.9978 5.50001C12.525 5.50001 13.8238 6.03451 14.8943 7.10351C15.9648 8.17251 16.5 9.47059 16.5 10.9978C16.5 12.5249 15.9655 13.8238 14.8965 14.8943C13.8275 15.9648 12.5295 16.5 11.0023 16.5ZM11 15C12.1 15 13.0417 14.6083 13.825 13.825C14.6084 13.0417 15 12.1 15 11C15 9.90001 14.6084 8.95834 13.825 8.17501C13.0417 7.39167 12.1 7.00001 11 7.00001C9.90004 7.00001 8.95837 7.39167 8.17504 8.17501C7.3917 8.95834 7.00004 9.90001 7.00004 11C7.00004 12.1 7.3917 13.0417 8.17504 13.825C8.95837 14.6083 9.90004 15 11 15Z" fill="white"/>
</svg>
