<svg width="24" height="24" viewBox="0 0 24 24" fill="none" xmlns="http://www.w3.org/2000/svg">
<path d="M15 13V5C15 3.34315 13.6569 2 12 2C10.3431 2 9 3.34315 9 5V13C7.79086 14.2091 7.79086 16.2909 9 17.5C10.2091 18.7091 12.7909 18.7091 14 17.5C15.2091 16.2909 15.2091 14.2091 15 13Z" stroke="currentColor" stroke-width="2" stroke-linecap="round" stroke-linejoin="round"/>
<path d="M12 18C13.1046 18 14 17.1046 14 16C14 14.8954 13.1046 14 12 14C10.8954 14 10 14.8954 10 16C10 17.1046 10.8954 18 12 18Z" stroke="currentColor" stroke-width="2" stroke-linecap="round" stroke-linejoin="round"/>
</svg>
